<svg xmlns="http://www.w3.org/2000/svg" xmlns:svg="http://www.w3.org/2000/svg" width="200" height="200" version="1.1"><style>svg .box-style{stroke:#000;fill:#fff}svg .highlighted-style{stroke:#000;fill:#c0ffc0}svg .fill-style{stroke:none;fill:#000}svg .line-style{stroke:#000;fill:none}svg .high-text-style,svg .text-style{font:20px arial;fill:#000}svg .faded-text-style{font:20px arial;fill:gray}[data-theme=dark] svg .box-style{stroke:#f2f2f2;fill:#000}[data-theme=dark] svg .highlighted-style{stroke:#f2f2f2;fill:#c0ffc0}[data-theme=dark] svg .fill-style{stroke:none;fill:#f2f2f2}[data-theme=dark] svg .line-style{stroke:#f2f2f2;fill:none}[data-theme=dark] svg .text-style{font:20px arial;fill:#f2f2f2}[data-theme=dark] svg .high-text-style{font:20px arial;fill:#000}[data-theme=dark] svg .faded-text-style{font:20px arial;fill:gray}[data-theme=light] svg .box-style{stroke:#000;fill:#fff}[data-theme=light] svg .highlighted-style{stroke:#000;fill:#c0ffc0}[data-theme=light] svg .fill-style{stroke:none;fill:#000}[data-theme=light] svg .line-style{stroke:#000;fill:none}[data-theme=light] svg .high-text-style,[data-theme=light] svg .text-style{font:20px arial;fill:#000}[data-theme=light] svg .faded-text-style{font:20px arial;fill:gray}</style><g><path fill="#fff" stroke="#000" d="m 0.5,0.5 h 30 v 30 h -30 z" class="box-style" transform="translate(10,10)"/><text x="10" y="22" class="text-style" font-family="arial" font-size="20" transform="translate(10,10)">0</text><path fill="#fff" stroke="#000" d="m 0.5,30.5 h 30 v 30 h -30 z" class="box-style" transform="translate(10,10)"/><text x="10" y="52" class="text-style" font-family="arial" font-size="20" transform="translate(10,10)">1</text><path fill="#c0ffc0" stroke="#000" d="m 0.5,60.5 h 30 v 30 h -30 z" class="highlighted-style" transform="translate(10,10)"/><text x="10" y="82" class="high-text-style" font-family="arial" font-size="20" transform="translate(10,10)">2</text><path fill="#fff" stroke="#000" d="m 0.5,90.5 h 30 v 30 h -30 z" class="box-style" transform="translate(10,10)"/><text x="10" y="112" class="text-style" font-family="arial" font-size="20" transform="translate(10,10)">3</text><path fill="#fff" stroke="#000" d="m 0.5,120.5 h 30 v 30 h -30 z" class="box-style" transform="translate(10,10)"/><text x="10" y="142" class="text-style" font-family="arial" font-size="20" transform="translate(10,10)">4</text><path fill="#fff" stroke="#000" d="m 0.5,150.5 h 30 v 30 h -30 z" class="box-style" transform="translate(10,10)"/><text x="10" y="172" class="text-style" font-family="arial" font-size="20" transform="translate(10,10)">5</text><path fill="#c0ffc0" stroke="#000" d="m 58.5,0.5 h 30 v 30 h -30 z" class="highlighted-style" transform="translate(10,10)"/><text x="67" y="22" class="high-text-style" font-family="arial" font-size="20" transform="translate(10,10)">2</text><path fill="#c0ffc0" stroke="#000" d="m 145.5,0.5 h 30 v 30.956 h -30 z" class="highlighted-style" transform="translate(10,10)"/><text x="155" y="22" class="high-text-style" font-family="arial" font-size="20" transform="translate(10,10)">2</text><path fill="#fff" stroke="#000" d="m 145.5,31.5 h 30 v 30 h -30 z" class="box-style" transform="translate(10,10)"/><text x="155" y="52" fill="gray" class="faded-text-style" font-family="arial" font-size="20" transform="translate(10,10)">0</text><path fill="#fff" stroke="#000" d="m 145.5,60.5 h 30 v 30 h -30 z" class="box-style" transform="translate(10,10)"/><text x="155" y="82" fill="gray" class="faded-text-style" font-family="arial" font-size="20" transform="translate(10,10)">1</text><path fill="#fff" stroke="#000" d="m 145.5,90.5 h 30 v 30 h -30 z" class="box-style" transform="translate(10,10)"/><text x="155" y="112" class="text-style" font-family="arial" font-size="20" transform="translate(10,10)">3</text><path fill="#fff" stroke="#000" d="m 145.5,120.5 h 30 v 30 h -30 z" class="box-style" transform="translate(10,10)"/><text x="155" y="142" class="text-style" font-family="arial" font-size="20" transform="translate(10,10)">4</text><path fill="#fff" stroke="#000" d="m 145.5,150.5 h 30 v 30 h -30 z" class="box-style" transform="translate(10,10)"/><text x="155" y="172" class="text-style" font-family="arial" font-size="20" transform="translate(10,10)">5</text><path fill="none" stroke="#000" d="M 58.5,0.5 h -25" class="line-style" transform="translate(10,10)"/><path fill="#000" stroke="none" d="M 31.5,0.5 l 10,-5 l 0,10 z" class="fill-style" transform="translate(10,10)"/><path fill="none" stroke="#000" d="M 31.5,75.5 h 42 v -43" class="line-style" transform="translate(10,10)"/><path fill="#000" stroke="#000" d="M 73.5,31.5 l -5,10 l 10,0 z" class="fill-style" transform="translate(10,10)"/></g></svg>