<svg xmlns="http://www.w3.org/2000/svg" xmlns:svg="http://www.w3.org/2000/svg" width="600" height="285" version="1.1"><style>svg .line-style{stroke:#000;fill:none}svg .italic-style,svg .text-style{font:12px arial;fill:#000}svg .italic-style{font-style:italic}svg .bold-style{font:14px arial;fill:#000;font-weight:700}[data-theme=dark] svg .line-style{stroke:#f2f2f2;fill:none}[data-theme=dark] svg .text-style{font:12px arial;fill:#f2f2f2}[data-theme=dark] svg .italic-style{font:12px arial;fill:#f2f2f2;font-style:italic}[data-theme=dark] svg .bold-style{font:14px arial;fill:#f2f2f2;font-weight:700}[data-theme=light] svg .line-style{stroke:#000;fill:none}[data-theme=light] svg .text-style{font:12px arial;fill:#000}[data-theme=light] svg .italic-style{font:12px arial;fill:#000;font-style:italic}[data-theme=light] svg .bold-style{font:14px arial;fill:#000;font-weight:700}</style><text x="35" y="16" class="bold-style" font-family="arial" font-size="12" font-weight="bold">List Model</text><text x="215" y="16" class="bold-style" font-family="arial" font-size="12" font-weight="bold">Table Model</text><text x="435" y="16" class="bold-style" font-family="arial" font-size="12" font-weight="bold">Tree Model</text><path stroke="#000" stroke-dasharray="3 3" d="m 400.5,255.5 v 25" class="line-style"/><path fill="none" stroke="#000" stroke-dasharray="5 5" d="m 385.5,30.5 h 30 v 30 h -30 z" class="line-style"/><text x="425" y="49" class="italic-style" font-family="arial" font-size="12" font-style="italic">Root item</text><path stroke="#000" d="m 400.5,60.5 v 195" class="line-style"/><path fill="none" stroke="#000" d="m 420.5,70.5 h 30 v 30 h -30 z" class="line-style"/><path stroke="#000" d="m 400.5,85.5 h 20" class="line-style"/><path stroke="#000" d="m 435.5,100.5 v 65" class="line-style"/><path fill="none" stroke="#000" d="m 455.5,110.5 h 30 v 30 h -30 z" class="line-style"/><path stroke="#000" d="m 435.5,125.5 h 20" class="line-style"/><path fill="none" stroke="#000" d="m 455.5,150.5 h 30 v 30 h -30 z" class="line-style"/><path stroke="#000" d="m 435.5,165.5 h 20" class="line-style"/><path stroke="#000" stroke-dasharray="3 3" d="m 435.5,165.5 v 25" class="line-style"/><path fill="none" stroke="#000" d="m 420.5,200.5 h 30 v 30 h -30 z" class="line-style"/><path stroke="#000" d="m 400.5,215.5 h 20" class="line-style"/><path fill="none" stroke="#000" d="m 420.5,240.5 h 30 v 30 h -30 z" class="line-style"/><path stroke="#000" d="m 400.5,255.5 h 20" class="line-style"/><path fill="none" stroke="#000" d="m 450.5,70.5 h 30 v 30 h -30 z" class="line-style"/><path fill="none" stroke="#000" d="m 485.5,110.5 h 30 v 30 h -30 z" class="line-style"/><path fill="none" stroke="#000" d="m 485.5,150.5 h 30 v 30 h -30 z" class="line-style"/><path fill="none" stroke="#000" d="m 450.5,200.5 h 30 v 30 h -30 z" class="line-style"/><path fill="none" stroke="#000" d="m 450.5,240.5 h 30 v 30 h -30 z" class="line-style"/><path fill="none" stroke="#000" stroke-dasharray="3 3" d="m 480.5,70.5 h 30 v 30 h -30 z" class="line-style"/><path fill="none" stroke="#000" stroke-dasharray="3 3" d="m 515.5,110.5 h 30 v 30 h -30 z" class="line-style"/><path fill="none" stroke="#000" stroke-dasharray="3 3" d="m 515.5,150.5 h 30 v 30 h -30 z" class="line-style"/><path fill="none" stroke="#000" stroke-dasharray="3 3" d="m 480.5,200.5 h 30 v 30 h -30 z" class="line-style"/><path fill="none" stroke="#000" stroke-dasharray="3 3" d="m 480.5,240.5 h 30 v 30 h -30 z" class="line-style"/><text x="515" y="89" class="text-style" font-family="arial" font-size="12">row = 0</text><text x="550" y="129" class="text-style" font-family="arial" font-size="12">row = 0</text><text x="550" y="169" class="text-style" font-family="arial" font-size="12">row = 1</text><text x="515" y="219" class="text-style" font-family="arial" font-size="12">row = 1</text><text x="515" y="259" class="text-style" font-family="arial" font-size="12">row = 2</text><path fill="none" stroke="#000" stroke-dasharray="5 5" d="m 155.5,30.5 h 30 v 30 h -30 z" class="line-style"/><path fill="none" stroke="#000" stroke-dasharray="5 5" d="m 10.5,30.5 h 30 v 30 h -30 z" class="line-style"/><text x="50" y="49" class="italic-style" font-family="arial" font-size="12" font-style="italic">Root item</text><path stroke="#000" d="m 25.5,60.5 v 105" class="line-style"/><path stroke="#000" d="M 25.5,85.5 h 20" class="line-style"/><path fill="none" stroke="#000" d="m 45.5,70.5 h 30 v 30 h -30 z" class="line-style"/><text x="80" y="89" class="text-style" font-family="arial" font-size="12">row = 0</text><path stroke="#000" stroke-dasharray="3 3" d="m 25.5,165.5 v 25" class="line-style"/><path stroke="#000" d="m 25.5,125.5 h 20" class="line-style"/><path fill="none" stroke="#000" d="m 45.5,110.5 h 30 v 30 h -30 z" class="line-style"/><text x="80" y="129" class="text-style" font-family="arial" font-size="12">row = 1</text><path stroke="#000" d="m 25.5,165.5 h 20" class="line-style"/><path fill="none" stroke="#000" d="m 45.5,150.5 h 30 v 30 h -30 z" class="line-style"/><text x="80" y="169" class="text-style" font-family="arial" font-size="12">row = 2</text><text x="195" y="49" class="italic-style" font-family="arial" font-size="12" font-style="italic">Root item</text><text x="315" y="89" class="text-style" font-family="arial" font-size="12">row = 0</text><text x="315" y="119" class="text-style" font-family="arial" font-size="12">row = 1</text><text x="315" y="149" class="text-style" font-family="arial" font-size="12">row = 2</text><text x="315" y="179" class="text-style" font-family="arial" font-size="12">row = 3</text><path stroke="#000" d="m 170.5,60.5 v 25" class="line-style"/><path stroke="#000" d="m 170.5,85.5 h 20" class="line-style"/><path fill="none" stroke="#000" d="m 190.5,70.5 h 30 v 30 h -30 z" class="line-style"/><path fill="none" stroke="#000" d="m 220.5,70.5 h 30 v 30 h -30 z" class="line-style"/><path fill="none" stroke="#000" d="m 250.5,70.5 h 30 v 30 h -30 z" class="line-style"/><path fill="none" stroke="#000" stroke-dasharray="3 3" d="m 280.5,70.5 h 30 v 30" class="line-style"/><path fill="none" stroke="#000" d="m 190.5,100.5 h 30 v 30 h -30 z" class="line-style"/><path fill="none" stroke="#000" d="m 220.5,100.5 h 30 v 30 h -30 z" class="line-style"/><path fill="none" stroke="#000" d="m 250.5,100.5 h 30 v 30 h -30 z" class="line-style"/><path fill="none" stroke="#000" stroke-dasharray="3 3" d="m 280.5,100.5 h 30 v 30 h -30 z" class="line-style"/><path fill="none" stroke="#000" d="m 190.5,130.5 h 30 v 30 h -30 z" class="line-style"/><path fill="none" stroke="#000" d="m 220.5,130.5 h 30 v 30 h -30 z" class="line-style"/><path fill="none" stroke="#000" d="m 250.5,130.5 h 30 v 30 h -30 z" class="line-style"/><path fill="none" stroke="#000" stroke-dasharray="3 3" d="m 220.5,160.5 h 30 v 30 h -30 z" class="line-style"/><path fill="none" stroke="#000" stroke-dasharray="3 3" d="m 190.5,160.5 v 30 h 30" class="line-style"/><path stroke="#000" stroke-dasharray="3 3" d="m 250.5,190.5 h 30" class="line-style"/><path fill="none" stroke="#000" stroke-dasharray="3 3" d="m 280.5,160.5 h 30 v 30 h -30 z" class="line-style"/><path stroke="#000" stroke-dasharray="3 3" d="m 310.5,130.5 v 30" class="line-style"/><g><text x="0" y="0" class="text-style" font-family="arial" font-size="12" transform="translate(200, 200) rotate(90)">column = 0</text><text x="0" y="-30" class="text-style" font-family="arial" font-size="12" transform="translate(200, 200) rotate(90)">column = 1</text><text x="0" y="-60" class="text-style" font-family="arial" font-size="12" transform="translate(200, 200) rotate(90)">column = 2</text><text x="0" y="-90" class="text-style" font-family="arial" font-size="12" transform="translate(200, 200) rotate(90)">column = 3</text></g></svg>