<svg xmlns="http://www.w3.org/2000/svg" xmlns:svg="http://www.w3.org/2000/svg" width="250" height="250" version="1.1" viewBox="0 0 250 250"><style>svg .line-style{stroke:#000;fill:none}svg .text-style{font:12px arial;fill:#000;font-weight:700}svg .circle{fill:#fa5;stroke:#000;stroke-width:1}[data-theme=dark] svg .line-style{stroke:#f2f2f2;fill:none}[data-theme=dark] svg .text-style{font:12px arial;fill:#f2f2f2;font-weight:700}[data-theme=dark] svg .circle{fill:#721;stroke:#f2f2f2;stroke-width:1}[data-theme=light] svg .line-style{stroke:#000;fill:none}[data-theme=light] svg .text-style{font:12px arial;fill:#000;font-weight:700}[data-theme=light] svg .circle{fill:#fa5;stroke:#000;stroke-width:1}</style><g transform="translate(2,2)"><path fill="#badcad" stroke="none" d="m 15,40 h 25 v 25 h -25 v -25"/><path fill="#94d05f" stroke="none" d="m 15,65 h 25 v 25 h -25 v -25"/><path fill="#94d05f" stroke="none" d="m 15,90 h 25 v 25 h -25 v -25"/><path fill="#94d05f" stroke="none" d="m 15,115 h 25 v 25 h -25 v -25"/><path fill="#94d05f" stroke="none" d="m 15,140 h 25 v 25 h -25 v -25"/><path fill="#badcad" stroke="none" d="m 15,165 h 25 v 25 h -25 v -25"/><path fill="#94d05f" stroke="none" d="m 40,40 h 25 v 25 h -25 v -25"/><path fill="#418331" stroke="none" d="m 40,65 h 25 v 25 h -25 v -25"/><path fill="#55b042" stroke="none" d="m 40,90 h 25 v 25 h -25 v -25"/><path fill="#55b042" stroke="none" d="m 40,115 h 25 v 25 h -25 v -25"/><path fill="#418331" stroke="none" d="m 40,140 h 25 v 25 h -25 v -25"/><path fill="#94d05f" stroke="none" d="m 40,165 h 25 v 25 h -25 v -25"/><path fill="#94d05f" stroke="none" d="m 65,40 h 25 v 25 h -25 v -25"/><path fill="#55b042" stroke="none" d="m 65,65 h 25 v 25 h -25 v -25"/><path fill="#55b042" stroke="none" d="m 65,140 h 25 v 25 h -25 v -25"/><path fill="#94d05f" stroke="none" d="m 65,165 h 25 v 25 h -25 v -25"/><path fill="#94d05f" stroke="none" d="m 90,40 h 25 v 25 h -25 v -25"/><path fill="#55b042" stroke="none" d="m 90,65 h 25 v 25 h -25 v -25"/><path fill="#55b042" stroke="none" d="m 90,140 h 25 v 25 h -25 v -25"/><path fill="#94d05f" stroke="none" d="m 90,165 h 25 v 25 h -25 v -25"/><path fill="#94d05f" stroke="none" d="m 115,40 h 25 v 25 h -25 v -25"/><path fill="#55b042" stroke="none" d="m 115,65 h 25 v 25 h -25 v -25"/><path fill="#55b042" stroke="none" d="m 115,140 h 25 v 25 h -25 v -25"/><path fill="#94d05f" stroke="none" d="m 115,165 h 25 v 25 h -25 v -25"/><path fill="#94d05f" stroke="none" d="m 140,40 h 25 v 25 h -25 v -25"/><path fill="#55b042" stroke="none" d="m 140,65 h 25 v 25 h -25 v -25"/><path fill="#55b042" stroke="none" d="m 140,140 h 25 v 25 h -25 v -25"/><path fill="#94d05f" stroke="none" d="m 140,165 h 25 v 25 h -25 v -25"/><path fill="#94d05f" stroke="none" d="m 165,40 h 25 v 25 h -25 v -25"/><path fill="#418331" stroke="none" d="m 165,65 h 25 v 25 h -25 v -25"/><path fill="#55b042" stroke="none" d="m 165,90 h 25 v 25 h -25 v -25"/><path fill="#55b042" stroke="none" d="m 165,115 h 25 v 25 h -25 v -25"/><path fill="#94d05f" stroke="none" d="m 165,165 h 25 v 25 h -25 v -25"/><path fill="#418331" stroke="none" d="m 165,140 h 25 v 25 h -25 v -25"/><path fill="#badcad" stroke="none" d="m 190,40 h 25 v 25 h -25 v -25"/><path fill="#94d05f" stroke="none" d="m 190,65 h 25 v 25 h -25 v -25"/><path fill="#94d05f" stroke="none" d="m 190,90 h 25 v 25 h -25 v -25"/><path fill="#94d05f" stroke="none" d="m 190,115 h 25 v 25 h -25 v -25"/><path fill="#94d05f" stroke="none" d="m 190,140 h 25 v 25 h -25 v -25"/><path fill="#badcad" stroke="none" d="m 190,165 h 25 v 25 h -25 v -25"/><text x="2" y="19" class="text-style">0</text><path d="M 15,40 h 225" class="line-style"/><text x="2" y="44" class="text-style">1</text><path d="M 15,65 h 225" class="line-style"/><text x="2" y="69" class="text-style">2</text><path d="M 15,90 h 225" class="line-style"/><text x="2" y="94" class="text-style">3</text><path d="M 15,115 h 225" class="line-style"/><text x="2" y="119" class="text-style">4</text><path d="M 15,140 h 225" class="line-style"/><text x="2" y="144" class="text-style">5</text><path d="M 15,165 h 225" class="line-style"/><text x="2" y="169" class="text-style">6</text><path d="M 15,190 h 225" class="line-style"/><text x="2" y="194" class="text-style">7</text><path d="M 15,215 h 225" class="line-style"/><text x="2" y="219" class="text-style">8</text><text x="2" y="244" class="text-style">9</text><text x="13" y="9" class="text-style">0</text><path d="M 40,15 v 225" class="line-style"/><text x="36" y="9" class="text-style">1</text><path d="M 65,15 v 225" class="line-style"/><text x="61" y="9" class="text-style">2</text><path d="M 90,15 v 225" class="line-style"/><text x="86" y="9" class="text-style">3</text><path d="M 115,15 v 225" class="line-style"/><text x="111" y="9" class="text-style">4</text><path d="M 140,15 v 225" class="line-style"/><text x="136" y="9" class="text-style">5</text><path d="M 165,15 v 225" class="line-style"/><text x="161" y="9" class="text-style">6</text><path d="M 190,15 v 225" class="line-style"/><text x="186" y="9" class="text-style">7</text><path d="M 215,15 v 225" class="line-style"/><text x="211" y="9" class="text-style">8</text><text x="236" y="9" class="text-style">9</text><circle cx="190" cy="165" r="7" class="circle"/><circle cx="40" cy="65" r="7" class="circle"/><path d="M 15,15 h 225 v 225 h -225 z" class="line-style"/></g></svg>